<svg xmlns="http://www.w3.org/2000/svg" version="1.1" xmlns:xlink="http://www.w3.org/1999/xlink" xmlns:svgjs="http://svgjs.com/svgjs" width="512" height="512" x="0" y="0" viewBox="0 0 512 512" style="enable-background:new 0 0 512 512" xml:space="preserve" class=""><g><path d="M201.85 314.54c-6.08 0-12.18-2.21-16.99-6.67L83.42 213.79a25 25 0 0 1 .25-36.89l104.22-94.08c10.25-9.25 26.06-8.44 35.31 1.81s8.44 26.06-1.81 35.31l-83.94 75.77 81.4 75.5c10.12 9.39 10.72 25.21 1.33 35.33-4.92 5.31-11.62 8-18.33 8z" fill="#000000" data-original="#000000" class=""></path><path d="M304.54 435.61H100.08c-13.81 0-25-11.19-25-25s11.19-25 25-25h204.46c45.42 0 82.37-36.95 82.37-82.37s-36.95-82.37-82.37-82.37H100.08c-13.81 0-25-11.19-25-25s11.19-25 25-25h204.46c72.99 0 132.37 59.38 132.37 132.37s-59.38 132.37-132.37 132.37z" fill="#000000" data-original="#000000" class=""></path></g></svg>