<svg xmlns="http://www.w3.org/2000/svg" version="1.1" xmlns:xlink="http://www.w3.org/1999/xlink" xmlns:svgjs="http://svgjs.com/svgjs" width="512" height="512" x="0" y="0" viewBox="0 0 24 24" style="enable-background:new 0 0 512 512" xml:space="preserve" class=""><g transform="matrix(1,-2.4492935982947064e-16,2.4492935982947064e-16,1,-3.552713678800501e-15,3.552713678800501e-15)"><g data-name="19"><path d="M12 19a1 1 0 0 1-.71-1.71l5.3-5.29-5.3-5.29A1 1 0 0 1 12.7 5.3l6 6a1 1 0 0 1 0 1.41l-6 6a1 1 0 0 1-.7.29z" fill="#000000" data-original="#000000"></path><path d="M6 19a1 1 0 0 1-.71-1.71l5.3-5.29-5.3-5.29a1 1 0 0 1 1.42-1.42l6 6a1 1 0 0 1 0 1.41l-6 6A1 1 0 0 1 6 19z" fill="#000000" data-original="#000000"></path></g></g></svg>